<svg xmlns="http://www.w3.org/2000/svg" version="1" viewBox="0 0 512 512">
  <path d="M221 1c-47 3-96 11-144 25-17 5-22 7-31 16-9 8-14 16-17 26a648 648 0 000 376c3 11 8 19 16 27 10 9 15 11 35 17a670 670 0 00230 23c41-4 80-11 121-23 23-6 28-8 38-19 11-10 13-15 19-38a681 681 0 0023-223c-4-43-12-87-23-128-6-20-8-25-17-35-8-8-16-14-26-16C372 6 294-3 221 1zm-40 123l3 18 1 11 9-9c14-13 25-20 41-25 9-3 28-4 38-2 16 4 31 14 36 25 5 12 5 10 6 122l2 110c2 14 6 22 14 29 7 7 14 9 25 9 6 1 8 0 12-2 5-3 8-6 12-15 7-14 15-18 24-13 5 3 8 6 8 13 0 11-9 20-25 25-14 4-38 4-53-1-26-9-42-28-49-55l-2-106-3-104c-3-10-12-18-22-22-7-2-21-2-29 1-13 4-28 16-39 30l-5 7v57c1 56 1 58 3 62 3 5 8 8 19 9l9 1v10h-94v-11h6c14 0 21-4 23-13l1-71c0-63-1-65-2-68-3-5-10-8-20-9h-8v-11l12-1 24-5 17-4 5 1 1 7z"/>
</svg>
